<mxfile host="app.diagrams.net" modified="2023-05-23T22:17:56.679Z" agent="Mozilla/5.0 (Windows NT 10.0; Win64; x64) AppleWebKit/537.36 (KHTML, like Gecko) Chrome/113.0.0.0 Safari/537.36 Edg/113.0.1774.50" etag="NP2K_eT1SiW7c2VuaWm5" version="21.3.3" type="github">
  <diagram id="C5RBs43oDa-KdzZeNtuy" name="Page-1">
    <mxGraphModel dx="1687" dy="2096" grid="1" gridSize="10" guides="1" tooltips="1" connect="1" arrows="1" fold="1" page="1" pageScale="1" pageWidth="827" pageHeight="1169" math="0" shadow="0">
      <root>
        <mxCell id="WIyWlLk6GJQsqaUBKTNV-0" />
        <mxCell id="WIyWlLk6GJQsqaUBKTNV-1" parent="WIyWlLk6GJQsqaUBKTNV-0" />
        <mxCell id="QbaI_bDc4_4zT5ApXnHs-39" style="edgeStyle=orthogonalEdgeStyle;rounded=0;orthogonalLoop=1;jettySize=auto;html=1;" parent="WIyWlLk6GJQsqaUBKTNV-1" source="WIyWlLk6GJQsqaUBKTNV-3" target="QbaI_bDc4_4zT5ApXnHs-38" edge="1">
          <mxGeometry relative="1" as="geometry" />
        </mxCell>
        <mxCell id="WIyWlLk6GJQsqaUBKTNV-3" value="select country." style="rounded=1;whiteSpace=wrap;html=1;fontSize=12;glass=0;strokeWidth=1;shadow=0;fillColor=#dae8fc;gradientColor=#7ea6e0;strokeColor=#6c8ebf;" parent="WIyWlLk6GJQsqaUBKTNV-1" vertex="1">
          <mxGeometry x="159" y="80" width="120" height="40" as="geometry" />
        </mxCell>
        <mxCell id="WIyWlLk6GJQsqaUBKTNV-4" value="Yes" style="rounded=0;html=1;jettySize=auto;orthogonalLoop=1;fontSize=11;endArrow=block;endFill=1;endSize=8;strokeWidth=1;shadow=0;labelBackgroundColor=none;edgeStyle=orthogonalEdgeStyle;entryX=0.5;entryY=0;entryDx=0;entryDy=0;" parent="WIyWlLk6GJQsqaUBKTNV-1" source="WIyWlLk6GJQsqaUBKTNV-6" target="QbaI_bDc4_4zT5ApXnHs-36" edge="1">
          <mxGeometry x="-0.6995" y="10" relative="1" as="geometry">
            <mxPoint as="offset" />
            <mxPoint x="219" y="761" as="targetPoint" />
            <Array as="points">
              <mxPoint x="219" y="751" />
              <mxPoint x="219" y="751" />
            </Array>
          </mxGeometry>
        </mxCell>
        <mxCell id="WIyWlLk6GJQsqaUBKTNV-5" value="No" style="edgeStyle=orthogonalEdgeStyle;rounded=0;html=1;jettySize=auto;orthogonalLoop=1;fontSize=11;endArrow=block;endFill=1;endSize=8;strokeWidth=1;shadow=0;labelBackgroundColor=none;" parent="WIyWlLk6GJQsqaUBKTNV-1" source="WIyWlLk6GJQsqaUBKTNV-6" target="WIyWlLk6GJQsqaUBKTNV-7" edge="1">
          <mxGeometry y="10" relative="1" as="geometry">
            <mxPoint as="offset" />
          </mxGeometry>
        </mxCell>
        <mxCell id="WIyWlLk6GJQsqaUBKTNV-6" value="has transfers &lt;br&gt;deposit ?" style="rhombus;whiteSpace=wrap;html=1;shadow=0;fontFamily=Helvetica;fontSize=12;align=center;strokeWidth=1;spacing=6;spacingTop=-4;fillColor=#fff2cc;gradientColor=#ffd966;strokeColor=#d6b656;" parent="WIyWlLk6GJQsqaUBKTNV-1" vertex="1">
          <mxGeometry x="154" y="610" width="130" height="120" as="geometry" />
        </mxCell>
        <mxCell id="QbaI_bDc4_4zT5ApXnHs-33" style="edgeStyle=orthogonalEdgeStyle;rounded=0;orthogonalLoop=1;jettySize=auto;html=1;entryX=0.5;entryY=0;entryDx=0;entryDy=0;" parent="WIyWlLk6GJQsqaUBKTNV-1" source="WIyWlLk6GJQsqaUBKTNV-7" target="QbaI_bDc4_4zT5ApXnHs-21" edge="1">
          <mxGeometry relative="1" as="geometry" />
        </mxCell>
        <mxCell id="WIyWlLk6GJQsqaUBKTNV-7" value="don&#39;t show deposit form." style="rounded=1;whiteSpace=wrap;html=1;fontSize=12;glass=0;strokeWidth=1;shadow=0;fillColor=#dae8fc;gradientColor=#7ea6e0;strokeColor=#6c8ebf;" parent="WIyWlLk6GJQsqaUBKTNV-1" vertex="1">
          <mxGeometry x="400" y="650" width="120" height="40" as="geometry" />
        </mxCell>
        <mxCell id="QbaI_bDc4_4zT5ApXnHs-9" style="edgeStyle=orthogonalEdgeStyle;rounded=0;orthogonalLoop=1;jettySize=auto;html=1;entryX=0;entryY=0.5;entryDx=0;entryDy=0;" parent="WIyWlLk6GJQsqaUBKTNV-1" source="WIyWlLk6GJQsqaUBKTNV-10" target="WIyWlLk6GJQsqaUBKTNV-11" edge="1">
          <mxGeometry relative="1" as="geometry" />
        </mxCell>
        <mxCell id="QbaI_bDc4_4zT5ApXnHs-10" style="edgeStyle=orthogonalEdgeStyle;rounded=0;orthogonalLoop=1;jettySize=auto;html=1;entryX=0;entryY=0.5;entryDx=0;entryDy=0;exitX=0;exitY=0.5;exitDx=0;exitDy=0;" parent="WIyWlLk6GJQsqaUBKTNV-1" source="WIyWlLk6GJQsqaUBKTNV-10" target="WIyWlLk6GJQsqaUBKTNV-3" edge="1">
          <mxGeometry relative="1" as="geometry">
            <mxPoint x="220" y="780" as="targetPoint" />
            <Array as="points">
              <mxPoint x="90" y="1536" />
              <mxPoint x="90" y="100" />
            </Array>
          </mxGeometry>
        </mxCell>
        <mxCell id="WIyWlLk6GJQsqaUBKTNV-10" value="does country selected &lt;br&gt;has Payers?" style="rhombus;whiteSpace=wrap;html=1;shadow=0;fontFamily=Helvetica;fontSize=12;align=center;strokeWidth=1;spacing=6;spacingTop=-4;fillColor=#fff2cc;gradientColor=#ffd966;strokeColor=#d6b656;" parent="WIyWlLk6GJQsqaUBKTNV-1" vertex="1">
          <mxGeometry x="158" y="1486" width="121" height="100" as="geometry" />
        </mxCell>
        <mxCell id="QbaI_bDc4_4zT5ApXnHs-17" value="" style="edgeStyle=orthogonalEdgeStyle;rounded=0;orthogonalLoop=1;jettySize=auto;html=1;" parent="WIyWlLk6GJQsqaUBKTNV-1" source="WIyWlLk6GJQsqaUBKTNV-11" target="QbaI_bDc4_4zT5ApXnHs-16" edge="1">
          <mxGeometry relative="1" as="geometry" />
        </mxCell>
        <mxCell id="WIyWlLk6GJQsqaUBKTNV-11" value="open modal to choose Payer" style="rounded=1;whiteSpace=wrap;html=1;fontSize=12;glass=0;strokeWidth=1;shadow=0;fillColor=#dae8fc;gradientColor=#7ea6e0;strokeColor=#6c8ebf;" parent="WIyWlLk6GJQsqaUBKTNV-1" vertex="1">
          <mxGeometry x="370" y="1515" width="120" height="40" as="geometry" />
        </mxCell>
        <mxCell id="Og16h5es36qc81L19uDu-1" style="edgeStyle=orthogonalEdgeStyle;rounded=0;orthogonalLoop=1;jettySize=auto;html=1;entryX=0.5;entryY=0;entryDx=0;entryDy=0;" edge="1" parent="WIyWlLk6GJQsqaUBKTNV-1" source="QbaI_bDc4_4zT5ApXnHs-0" target="Og16h5es36qc81L19uDu-0">
          <mxGeometry relative="1" as="geometry" />
        </mxCell>
        <mxCell id="QbaI_bDc4_4zT5ApXnHs-0" value="select city." style="rounded=1;whiteSpace=wrap;html=1;fillColor=#dae8fc;gradientColor=#7ea6e0;strokeColor=#6c8ebf;" parent="WIyWlLk6GJQsqaUBKTNV-1" vertex="1">
          <mxGeometry x="159" y="898" width="120" height="40" as="geometry" />
        </mxCell>
        <mxCell id="Og16h5es36qc81L19uDu-4" style="edgeStyle=orthogonalEdgeStyle;rounded=0;orthogonalLoop=1;jettySize=auto;html=1;entryX=1;entryY=0.5;entryDx=0;entryDy=0;" edge="1" parent="WIyWlLk6GJQsqaUBKTNV-1" source="QbaI_bDc4_4zT5ApXnHs-2" target="QbaI_bDc4_4zT5ApXnHs-4">
          <mxGeometry relative="1" as="geometry">
            <Array as="points">
              <mxPoint x="500" y="1272" />
            </Array>
          </mxGeometry>
        </mxCell>
        <mxCell id="QbaI_bDc4_4zT5ApXnHs-2" value="select FeeType,&lt;br&gt;change idAgentSchema" style="whiteSpace=wrap;html=1;rounded=1;fillColor=#dae8fc;gradientColor=#7ea6e0;strokeColor=#6c8ebf;" parent="WIyWlLk6GJQsqaUBKTNV-1" vertex="1">
          <mxGeometry x="420" y="1000" width="150" height="44" as="geometry" />
        </mxCell>
        <mxCell id="QbaI_bDc4_4zT5ApXnHs-47" style="edgeStyle=orthogonalEdgeStyle;rounded=0;orthogonalLoop=1;jettySize=auto;html=1;entryX=0.5;entryY=0;entryDx=0;entryDy=0;" parent="WIyWlLk6GJQsqaUBKTNV-1" source="QbaI_bDc4_4zT5ApXnHs-4" target="QbaI_bDc4_4zT5ApXnHs-46" edge="1">
          <mxGeometry relative="1" as="geometry" />
        </mxCell>
        <mxCell id="QbaI_bDc4_4zT5ApXnHs-4" value="insert amount." style="whiteSpace=wrap;html=1;rounded=1;fillColor=#dae8fc;gradientColor=#7ea6e0;strokeColor=#6c8ebf;" parent="WIyWlLk6GJQsqaUBKTNV-1" vertex="1">
          <mxGeometry x="159" y="1250" width="120" height="44" as="geometry" />
        </mxCell>
        <mxCell id="QbaI_bDc4_4zT5ApXnHs-11" value="Yes" style="text;html=1;align=center;verticalAlign=middle;resizable=0;points=[];autosize=1;strokeColor=none;fillColor=none;" parent="WIyWlLk6GJQsqaUBKTNV-1" vertex="1">
          <mxGeometry x="262" y="1500" width="40" height="30" as="geometry" />
        </mxCell>
        <mxCell id="QbaI_bDc4_4zT5ApXnHs-12" value="No" style="text;html=1;align=center;verticalAlign=middle;resizable=0;points=[];autosize=1;strokeColor=none;fillColor=none;" parent="WIyWlLk6GJQsqaUBKTNV-1" vertex="1">
          <mxGeometry x="140" y="1500" width="40" height="30" as="geometry" />
        </mxCell>
        <mxCell id="QbaI_bDc4_4zT5ApXnHs-23" value="" style="edgeStyle=orthogonalEdgeStyle;rounded=0;orthogonalLoop=1;jettySize=auto;html=1;exitX=0.5;exitY=0;exitDx=0;exitDy=0;" parent="WIyWlLk6GJQsqaUBKTNV-1" source="QbaI_bDc4_4zT5ApXnHs-16" target="QbaI_bDc4_4zT5ApXnHs-22" edge="1">
          <mxGeometry relative="1" as="geometry">
            <mxPoint x="620.0588235294117" y="1444" as="sourcePoint" />
          </mxGeometry>
        </mxCell>
        <mxCell id="QbaI_bDc4_4zT5ApXnHs-25" value="" style="edgeStyle=orthogonalEdgeStyle;rounded=0;orthogonalLoop=1;jettySize=auto;html=1;" parent="WIyWlLk6GJQsqaUBKTNV-1" source="Og16h5es36qc81L19uDu-22" target="QbaI_bDc4_4zT5ApXnHs-24" edge="1">
          <mxGeometry relative="1" as="geometry" />
        </mxCell>
        <mxCell id="QbaI_bDc4_4zT5ApXnHs-16" value="&lt;div&gt;does payer&lt;/div&gt;&lt;div&gt;need account type?&lt;/div&gt;" style="rhombus;whiteSpace=wrap;html=1;rounded=1;glass=0;strokeWidth=1;shadow=0;arcSize=0;fillColor=#fff2cc;gradientColor=#ffd966;strokeColor=#d6b656;" parent="WIyWlLk6GJQsqaUBKTNV-1" vertex="1">
          <mxGeometry x="560" y="1469" width="150" height="130" as="geometry" />
        </mxCell>
        <mxCell id="QbaI_bDc4_4zT5ApXnHs-20" style="edgeStyle=orthogonalEdgeStyle;rounded=0;orthogonalLoop=1;jettySize=auto;html=1;" parent="WIyWlLk6GJQsqaUBKTNV-1" source="QbaI_bDc4_4zT5ApXnHs-19" target="WIyWlLk6GJQsqaUBKTNV-3" edge="1">
          <mxGeometry relative="1" as="geometry" />
        </mxCell>
        <mxCell id="QbaI_bDc4_4zT5ApXnHs-19" value="start" style="ellipse;whiteSpace=wrap;html=1;aspect=fixed;" parent="WIyWlLk6GJQsqaUBKTNV-1" vertex="1">
          <mxGeometry x="189" y="-28" width="60" height="60" as="geometry" />
        </mxCell>
        <mxCell id="QbaI_bDc4_4zT5ApXnHs-21" value="end" style="ellipse;whiteSpace=wrap;html=1;aspect=fixed;" parent="WIyWlLk6GJQsqaUBKTNV-1" vertex="1">
          <mxGeometry x="1140" y="888" width="60" height="60" as="geometry" />
        </mxCell>
        <mxCell id="QbaI_bDc4_4zT5ApXnHs-31" style="edgeStyle=orthogonalEdgeStyle;rounded=0;orthogonalLoop=1;jettySize=auto;html=1;entryX=0.5;entryY=0;entryDx=0;entryDy=0;" parent="WIyWlLk6GJQsqaUBKTNV-1" source="QbaI_bDc4_4zT5ApXnHs-22" target="QbaI_bDc4_4zT5ApXnHs-24" edge="1">
          <mxGeometry relative="1" as="geometry" />
        </mxCell>
        <mxCell id="QbaI_bDc4_4zT5ApXnHs-22" value="select account type" style="whiteSpace=wrap;html=1;rounded=1;glass=0;strokeWidth=1;shadow=0;arcSize=17;fillColor=#dae8fc;gradientColor=#7ea6e0;strokeColor=#6c8ebf;" parent="WIyWlLk6GJQsqaUBKTNV-1" vertex="1">
          <mxGeometry x="575" y="1360" width="120" height="43" as="geometry" />
        </mxCell>
        <mxCell id="Og16h5es36qc81L19uDu-15" style="edgeStyle=orthogonalEdgeStyle;rounded=0;orthogonalLoop=1;jettySize=auto;html=1;" edge="1" parent="WIyWlLk6GJQsqaUBKTNV-1" source="QbaI_bDc4_4zT5ApXnHs-24" target="Og16h5es36qc81L19uDu-14">
          <mxGeometry relative="1" as="geometry" />
        </mxCell>
        <mxCell id="QbaI_bDc4_4zT5ApXnHs-24" value="insert account number" style="whiteSpace=wrap;html=1;rounded=1;glass=0;strokeWidth=1;shadow=0;arcSize=8;fillColor=#dae8fc;gradientColor=#7ea6e0;strokeColor=#6c8ebf;" parent="WIyWlLk6GJQsqaUBKTNV-1" vertex="1">
          <mxGeometry x="950" y="1504" width="120" height="60" as="geometry" />
        </mxCell>
        <mxCell id="QbaI_bDc4_4zT5ApXnHs-28" value="No" style="text;html=1;align=center;verticalAlign=middle;resizable=0;points=[];autosize=1;strokeColor=none;fillColor=none;" parent="WIyWlLk6GJQsqaUBKTNV-1" vertex="1">
          <mxGeometry x="696" y="1499" width="40" height="30" as="geometry" />
        </mxCell>
        <mxCell id="QbaI_bDc4_4zT5ApXnHs-30" value="Yes" style="text;html=1;align=center;verticalAlign=middle;resizable=0;points=[];autosize=1;strokeColor=none;fillColor=none;" parent="WIyWlLk6GJQsqaUBKTNV-1" vertex="1">
          <mxGeometry x="600" y="1444" width="40" height="30" as="geometry" />
        </mxCell>
        <mxCell id="QbaI_bDc4_4zT5ApXnHs-37" style="edgeStyle=orthogonalEdgeStyle;rounded=0;orthogonalLoop=1;jettySize=auto;html=1;entryX=0.5;entryY=0;entryDx=0;entryDy=0;" parent="WIyWlLk6GJQsqaUBKTNV-1" source="QbaI_bDc4_4zT5ApXnHs-36" target="QbaI_bDc4_4zT5ApXnHs-0" edge="1">
          <mxGeometry relative="1" as="geometry" />
        </mxCell>
        <mxCell id="QbaI_bDc4_4zT5ApXnHs-36" value="show deposit form." style="rounded=1;whiteSpace=wrap;html=1;fontSize=12;glass=0;strokeWidth=1;shadow=0;fillColor=#dae8fc;gradientColor=#7ea6e0;strokeColor=#6c8ebf;" parent="WIyWlLk6GJQsqaUBKTNV-1" vertex="1">
          <mxGeometry x="159" y="791" width="120" height="40" as="geometry" />
        </mxCell>
        <mxCell id="QbaI_bDc4_4zT5ApXnHs-41" style="edgeStyle=orthogonalEdgeStyle;rounded=0;orthogonalLoop=1;jettySize=auto;html=1;" parent="WIyWlLk6GJQsqaUBKTNV-1" source="QbaI_bDc4_4zT5ApXnHs-38" target="QbaI_bDc4_4zT5ApXnHs-40" edge="1">
          <mxGeometry relative="1" as="geometry" />
        </mxCell>
        <mxCell id="QbaI_bDc4_4zT5ApXnHs-38" value="set payerSelected,&amp;nbsp;&lt;span style=&quot;background-color: initial;&quot;&gt;idBeneficiary,&amp;nbsp;&lt;br&gt;&lt;/span&gt;&lt;span style=&quot;background-color: initial;&quot;&gt;idPaymentType to store.&lt;/span&gt;&lt;span style=&quot;background-color: initial;&quot;&gt;&lt;br&gt;&lt;/span&gt;" style="rounded=1;whiteSpace=wrap;html=1;fontSize=12;glass=0;strokeWidth=1;shadow=0;fillColor=#dae8fc;gradientColor=#7ea6e0;strokeColor=#6c8ebf;" parent="WIyWlLk6GJQsqaUBKTNV-1" vertex="1">
          <mxGeometry x="121" y="200" width="196" height="59" as="geometry" />
        </mxCell>
        <mxCell id="QbaI_bDc4_4zT5ApXnHs-44" style="edgeStyle=orthogonalEdgeStyle;rounded=0;orthogonalLoop=1;jettySize=auto;html=1;" parent="WIyWlLk6GJQsqaUBKTNV-1" source="QbaI_bDc4_4zT5ApXnHs-40" target="QbaI_bDc4_4zT5ApXnHs-43" edge="1">
          <mxGeometry relative="1" as="geometry" />
        </mxCell>
        <mxCell id="QbaI_bDc4_4zT5ApXnHs-40" value="&lt;span style=&quot;background-color: initial;&quot;&gt;research payers by country selected.&lt;br&gt;&lt;/span&gt;" style="rounded=1;whiteSpace=wrap;html=1;fontSize=12;glass=0;strokeWidth=1;shadow=0;fillColor=#dae8fc;gradientColor=#7ea6e0;strokeColor=#6c8ebf;" parent="WIyWlLk6GJQsqaUBKTNV-1" vertex="1">
          <mxGeometry x="120.5" y="330" width="196" height="49" as="geometry" />
        </mxCell>
        <mxCell id="QbaI_bDc4_4zT5ApXnHs-45" style="edgeStyle=orthogonalEdgeStyle;rounded=0;orthogonalLoop=1;jettySize=auto;html=1;" parent="WIyWlLk6GJQsqaUBKTNV-1" source="QbaI_bDc4_4zT5ApXnHs-43" target="WIyWlLk6GJQsqaUBKTNV-6" edge="1">
          <mxGeometry relative="1" as="geometry" />
        </mxCell>
        <mxCell id="QbaI_bDc4_4zT5ApXnHs-43" value="&lt;span style=&quot;background-color: initial;&quot;&gt;search feetypes by country selected.&lt;br&gt;&lt;/span&gt;" style="rounded=1;whiteSpace=wrap;html=1;fontSize=12;glass=0;strokeWidth=1;shadow=0;fillColor=#dae8fc;gradientColor=#7ea6e0;strokeColor=#6c8ebf;" parent="WIyWlLk6GJQsqaUBKTNV-1" vertex="1">
          <mxGeometry x="121" y="470" width="196" height="49" as="geometry" />
        </mxCell>
        <mxCell id="QbaI_bDc4_4zT5ApXnHs-48" style="edgeStyle=orthogonalEdgeStyle;rounded=0;orthogonalLoop=1;jettySize=auto;html=1;" parent="WIyWlLk6GJQsqaUBKTNV-1" source="QbaI_bDc4_4zT5ApXnHs-46" target="WIyWlLk6GJQsqaUBKTNV-10" edge="1">
          <mxGeometry relative="1" as="geometry" />
        </mxCell>
        <mxCell id="QbaI_bDc4_4zT5ApXnHs-46" value="&lt;span style=&quot;background-color: initial;&quot;&gt;get totals.&lt;br&gt;&lt;/span&gt;" style="rounded=1;whiteSpace=wrap;html=1;fontSize=12;glass=0;strokeWidth=1;shadow=0;fillColor=#dae8fc;gradientColor=#7ea6e0;strokeColor=#6c8ebf;" parent="WIyWlLk6GJQsqaUBKTNV-1" vertex="1">
          <mxGeometry x="158" y="1357" width="122" height="49" as="geometry" />
        </mxCell>
        <mxCell id="QbaI_bDc4_4zT5ApXnHs-51" style="edgeStyle=orthogonalEdgeStyle;rounded=0;orthogonalLoop=1;jettySize=auto;html=1;entryX=0.5;entryY=1;entryDx=0;entryDy=0;" parent="WIyWlLk6GJQsqaUBKTNV-1" source="QbaI_bDc4_4zT5ApXnHs-49" target="QbaI_bDc4_4zT5ApXnHs-21" edge="1">
          <mxGeometry relative="1" as="geometry" />
        </mxCell>
        <mxCell id="QbaI_bDc4_4zT5ApXnHs-49" value="continue button." style="whiteSpace=wrap;html=1;rounded=1;glass=0;strokeWidth=1;shadow=0;arcSize=10;fillColor=#dae8fc;gradientColor=#7ea6e0;strokeColor=#6c8ebf;" parent="WIyWlLk6GJQsqaUBKTNV-1" vertex="1">
          <mxGeometry x="1110" y="1100" width="120" height="60" as="geometry" />
        </mxCell>
        <mxCell id="Og16h5es36qc81L19uDu-2" style="edgeStyle=orthogonalEdgeStyle;rounded=0;orthogonalLoop=1;jettySize=auto;html=1;entryX=0;entryY=0.5;entryDx=0;entryDy=0;" edge="1" parent="WIyWlLk6GJQsqaUBKTNV-1" source="Og16h5es36qc81L19uDu-0" target="QbaI_bDc4_4zT5ApXnHs-2">
          <mxGeometry relative="1" as="geometry" />
        </mxCell>
        <mxCell id="Og16h5es36qc81L19uDu-8" style="edgeStyle=orthogonalEdgeStyle;rounded=0;orthogonalLoop=1;jettySize=auto;html=1;entryX=0.5;entryY=0;entryDx=0;entryDy=0;" edge="1" parent="WIyWlLk6GJQsqaUBKTNV-1" source="Og16h5es36qc81L19uDu-0" target="Og16h5es36qc81L19uDu-5">
          <mxGeometry relative="1" as="geometry" />
        </mxCell>
        <mxCell id="Og16h5es36qc81L19uDu-0" value="&lt;div&gt;is selectable&amp;nbsp;&lt;/div&gt;&lt;div&gt;feetype?&lt;/div&gt;" style="rhombus;whiteSpace=wrap;html=1;rounded=1;glass=0;strokeWidth=1;shadow=0;arcSize=0;fillColor=#fff2cc;gradientColor=#ffd966;strokeColor=#d6b656;" vertex="1" parent="WIyWlLk6GJQsqaUBKTNV-1">
          <mxGeometry x="161" y="973.5" width="116" height="97" as="geometry" />
        </mxCell>
        <mxCell id="Og16h5es36qc81L19uDu-9" style="edgeStyle=orthogonalEdgeStyle;rounded=0;orthogonalLoop=1;jettySize=auto;html=1;" edge="1" parent="WIyWlLk6GJQsqaUBKTNV-1" source="Og16h5es36qc81L19uDu-5" target="QbaI_bDc4_4zT5ApXnHs-4">
          <mxGeometry relative="1" as="geometry" />
        </mxCell>
        <mxCell id="Og16h5es36qc81L19uDu-5" value="select the only feetype and set idAgentSchema" style="whiteSpace=wrap;html=1;rounded=1;fillColor=#dae8fc;gradientColor=#7ea6e0;strokeColor=#6c8ebf;" vertex="1" parent="WIyWlLk6GJQsqaUBKTNV-1">
          <mxGeometry x="149.5" y="1140" width="139" height="60" as="geometry" />
        </mxCell>
        <mxCell id="Og16h5es36qc81L19uDu-10" value="No" style="text;html=1;align=center;verticalAlign=middle;resizable=0;points=[];autosize=1;strokeColor=none;fillColor=none;" vertex="1" parent="WIyWlLk6GJQsqaUBKTNV-1">
          <mxGeometry x="222" y="1060" width="40" height="30" as="geometry" />
        </mxCell>
        <mxCell id="Og16h5es36qc81L19uDu-11" value="Yes" style="text;html=1;align=center;verticalAlign=middle;resizable=0;points=[];autosize=1;strokeColor=none;fillColor=none;" vertex="1" parent="WIyWlLk6GJQsqaUBKTNV-1">
          <mxGeometry x="262" y="990" width="40" height="30" as="geometry" />
        </mxCell>
        <mxCell id="Og16h5es36qc81L19uDu-16" style="edgeStyle=orthogonalEdgeStyle;rounded=0;orthogonalLoop=1;jettySize=auto;html=1;entryX=1;entryY=0.5;entryDx=0;entryDy=0;" edge="1" parent="WIyWlLk6GJQsqaUBKTNV-1" source="Og16h5es36qc81L19uDu-14" target="QbaI_bDc4_4zT5ApXnHs-49">
          <mxGeometry relative="1" as="geometry">
            <Array as="points">
              <mxPoint x="1250" y="1534" />
              <mxPoint x="1250" y="1130" />
            </Array>
          </mxGeometry>
        </mxCell>
        <mxCell id="Og16h5es36qc81L19uDu-18" style="edgeStyle=orthogonalEdgeStyle;rounded=0;orthogonalLoop=1;jettySize=auto;html=1;entryX=0.5;entryY=1;entryDx=0;entryDy=0;" edge="1" parent="WIyWlLk6GJQsqaUBKTNV-1" source="Og16h5es36qc81L19uDu-14" target="Og16h5es36qc81L19uDu-17">
          <mxGeometry relative="1" as="geometry" />
        </mxCell>
        <mxCell id="Og16h5es36qc81L19uDu-14" value="&lt;div&gt;&lt;span style=&quot;background-color: initial;&quot;&gt;is branch&amp;nbsp;&lt;/span&gt;&lt;/div&gt;&lt;div&gt;&lt;span style=&quot;background-color: initial;&quot;&gt;required ?&lt;/span&gt;&lt;br&gt;&lt;/div&gt;" style="rhombus;whiteSpace=wrap;html=1;rounded=1;glass=0;strokeWidth=1;shadow=0;arcSize=0;fillColor=#fff2cc;gradientColor=#ffd966;strokeColor=#d6b656;" vertex="1" parent="WIyWlLk6GJQsqaUBKTNV-1">
          <mxGeometry x="1107.69" y="1481" width="122.31" height="106" as="geometry" />
        </mxCell>
        <mxCell id="Og16h5es36qc81L19uDu-19" style="edgeStyle=orthogonalEdgeStyle;rounded=0;orthogonalLoop=1;jettySize=auto;html=1;" edge="1" parent="WIyWlLk6GJQsqaUBKTNV-1" source="Og16h5es36qc81L19uDu-17" target="QbaI_bDc4_4zT5ApXnHs-49">
          <mxGeometry relative="1" as="geometry" />
        </mxCell>
        <mxCell id="Og16h5es36qc81L19uDu-17" value="select branch," style="whiteSpace=wrap;html=1;rounded=1;glass=0;strokeWidth=1;shadow=0;arcSize=17;fillColor=#dae8fc;gradientColor=#7ea6e0;strokeColor=#6c8ebf;" vertex="1" parent="WIyWlLk6GJQsqaUBKTNV-1">
          <mxGeometry x="1109" y="1350" width="120" height="43" as="geometry" />
        </mxCell>
        <mxCell id="Og16h5es36qc81L19uDu-20" value="No" style="text;html=1;align=center;verticalAlign=middle;resizable=0;points=[];autosize=1;strokeColor=none;fillColor=none;" vertex="1" parent="WIyWlLk6GJQsqaUBKTNV-1">
          <mxGeometry x="1221" y="1534" width="40" height="30" as="geometry" />
        </mxCell>
        <mxCell id="Og16h5es36qc81L19uDu-21" value="Yes" style="text;html=1;align=center;verticalAlign=middle;resizable=0;points=[];autosize=1;strokeColor=none;fillColor=none;" vertex="1" parent="WIyWlLk6GJQsqaUBKTNV-1">
          <mxGeometry x="1164" y="1456" width="40" height="30" as="geometry" />
        </mxCell>
        <mxCell id="Og16h5es36qc81L19uDu-23" value="" style="edgeStyle=orthogonalEdgeStyle;rounded=0;orthogonalLoop=1;jettySize=auto;html=1;" edge="1" parent="WIyWlLk6GJQsqaUBKTNV-1" source="QbaI_bDc4_4zT5ApXnHs-16" target="Og16h5es36qc81L19uDu-22">
          <mxGeometry relative="1" as="geometry">
            <mxPoint x="710" y="1534" as="sourcePoint" />
            <mxPoint x="950" y="1534" as="targetPoint" />
          </mxGeometry>
        </mxCell>
        <mxCell id="Og16h5es36qc81L19uDu-22" value="block input account type" style="whiteSpace=wrap;html=1;rounded=1;glass=0;strokeWidth=1;shadow=0;arcSize=8;fillColor=#dae8fc;gradientColor=#7ea6e0;strokeColor=#6c8ebf;" vertex="1" parent="WIyWlLk6GJQsqaUBKTNV-1">
          <mxGeometry x="780" y="1504" width="120" height="60" as="geometry" />
        </mxCell>
      </root>
    </mxGraphModel>
  </diagram>
</mxfile>
